<?xml version="1.0" encoding="utf-8"?>
<!-- Generator: Adobe Illustrator 24.0.1, SVG Export Plug-In . SVG Version: 6.00 Build 0)  -->
<svg version="1.1" id="Layer_1" xmlns="http://www.w3.org/2000/svg" xmlns:xlink="http://www.w3.org/1999/xlink" x="0px" y="0px"
	 viewBox="0 0 1366 768" style="enable-background:new 0 0 1366 768;" xml:space="preserve">
<style type="text/css">
	.st0{opacity:0.2;}
	.st1{fill:#221F1F;}
	.st2{fill-rule:evenodd;clip-rule:evenodd;fill:#EF8022;}
	.st3{fill:#636868;}
	.st4{fill:url(#SVGID_1_);}
	.st5{fill:url(#SVGID_2_);}
	.st6{fill:url(#SVGID_3_);}
	.st7{fill:url(#SVGID_4_);}
</style>
<g class="st0">
	<g>
		<g>
			<path class="st1" d="M544.44,363.41v-14.06h4.78c0.84,0,1.49,0.05,1.93,0.14c0.62,0.11,1.14,0.33,1.56,0.65
				c0.42,0.33,0.76,0.78,1.01,1.36c0.26,0.58,0.38,1.22,0.38,1.92c0,1.2-0.34,2.21-1.03,3.04c-0.68,0.83-1.92,1.24-3.71,1.24h-3.25
				v5.72H544.44z M546.12,356.03h3.27c1.08,0,1.85-0.22,2.3-0.67c0.45-0.45,0.68-1.08,0.68-1.89c0-0.59-0.13-1.09-0.4-1.51
				s-0.62-0.7-1.05-0.83c-0.28-0.08-0.81-0.12-1.57-0.12h-3.24V356.03z"/>
			<path class="st1" d="M569.58,363.41v-14.06h5.61c1.13,0,1.98,0.13,2.57,0.38c0.59,0.25,1.06,0.7,1.41,1.34
				c0.35,0.64,0.53,1.34,0.53,2.12c0,1-0.29,1.84-0.87,2.52c-0.58,0.69-1.48,1.12-2.69,1.31c0.44,0.23,0.78,0.47,1.01,0.69
				c0.49,0.5,0.95,1.13,1.39,1.87l2.2,3.83h-2.11l-1.67-2.92c-0.49-0.85-0.89-1.49-1.21-1.94c-0.32-0.45-0.6-0.77-0.85-0.94
				c-0.25-0.18-0.5-0.3-0.76-0.38c-0.19-0.04-0.5-0.07-0.93-0.07h-1.94v6.25H569.58z M571.26,355.55h3.6c0.76,0,1.36-0.09,1.8-0.26
				c0.43-0.18,0.76-0.46,0.98-0.85c0.23-0.39,0.34-0.81,0.34-1.26c0-0.66-0.22-1.21-0.65-1.64c-0.44-0.43-1.12-0.64-2.06-0.64h-4.01
				V355.55z"/>
			<path class="st1" d="M595.14,356.55c0-2.33,0.56-4.16,1.69-5.48c1.13-1.32,2.58-1.98,4.37-1.98c1.17,0,2.22,0.31,3.16,0.93
				c0.93,0.62,1.65,1.49,2.14,2.6c0.49,1.11,0.74,2.36,0.74,3.77c0,1.43-0.26,2.71-0.78,3.83c-0.52,1.13-1.25,1.98-2.2,2.56
				c-0.95,0.57-1.97,0.87-3.07,0.87c-1.19,0-2.26-0.32-3.19-0.96c-0.94-0.64-1.65-1.51-2.13-2.62
				C595.38,358.96,595.14,357.79,595.14,356.55z M596.86,356.59c0,1.69,0.41,3.03,1.23,4c0.82,0.98,1.85,1.47,3.09,1.47
				c1.26,0,2.29-0.49,3.11-1.48c0.81-0.99,1.22-2.38,1.22-4.19c0-1.15-0.18-2.15-0.52-3c-0.35-0.85-0.86-1.51-1.53-1.98
				c-0.67-0.47-1.42-0.71-2.26-0.71c-1.19,0-2.21,0.45-3.06,1.36C597.29,352.96,596.86,354.47,596.86,356.59z"/>
			<path class="st1" d="M622.72,363.41v-14.06h4.78c0.84,0,1.48,0.05,1.92,0.14c0.62,0.11,1.15,0.33,1.56,0.65
				c0.42,0.33,0.76,0.78,1.02,1.36c0.26,0.58,0.38,1.22,0.38,1.92c0,1.2-0.34,2.21-1.03,3.04c-0.69,0.83-1.92,1.24-3.71,1.24h-3.25
				v5.72H622.72z M624.4,356.03h3.27c1.09,0,1.85-0.22,2.31-0.67c0.45-0.45,0.68-1.08,0.68-1.89c0-0.59-0.14-1.09-0.4-1.51
				c-0.27-0.42-0.62-0.7-1.06-0.83c-0.28-0.08-0.8-0.12-1.56-0.12h-3.23V356.03z"/>
			<path class="st1" d="M647.87,363.41v-14.06h9.16V351h-7.48v4.31h7v1.65h-7v4.79h7.77v1.66H647.87z"/>
			<path class="st1" d="M672.97,363.41v-14.06h5.61c1.13,0,1.99,0.13,2.57,0.38c0.59,0.25,1.06,0.7,1.41,1.34
				c0.35,0.64,0.53,1.34,0.53,2.12c0,1-0.29,1.84-0.87,2.52c-0.58,0.69-1.48,1.12-2.69,1.31c0.44,0.23,0.78,0.47,1.01,0.69
				c0.49,0.5,0.95,1.13,1.39,1.87l2.2,3.83h-2.11l-1.68-2.92c-0.49-0.85-0.89-1.49-1.21-1.94c-0.31-0.45-0.6-0.77-0.85-0.94
				c-0.25-0.18-0.5-0.3-0.77-0.38c-0.19-0.04-0.5-0.07-0.93-0.07h-1.94v6.25H672.97z M674.65,355.55h3.6c0.77,0,1.37-0.09,1.8-0.26
				c0.43-0.18,0.76-0.46,0.98-0.85c0.22-0.39,0.34-0.81,0.34-1.26c0-0.66-0.22-1.21-0.65-1.64c-0.43-0.43-1.12-0.64-2.06-0.64h-4.01
				V355.55z"/>
			<path class="st1" d="M701.94,363.41V351h-4.17v-1.66h10.03V351h-4.19v12.4H701.94z"/>
			<path class="st1" d="M723.12,363.41v-14.06h1.68v14.06H723.12z"/>
			<path class="st1" d="M741.1,363.41v-14.06h9.15V351h-7.48v4.31h7v1.65h-7v4.79h7.78v1.66H741.1z"/>
			<path class="st1" d="M765.61,358.89l1.58-0.15c0.07,0.7,0.25,1.28,0.52,1.73c0.27,0.45,0.7,0.81,1.27,1.09
				c0.58,0.28,1.22,0.42,1.95,0.42c0.64,0,1.2-0.1,1.69-0.32c0.49-0.21,0.85-0.5,1.09-0.87c0.24-0.37,0.36-0.77,0.36-1.21
				c0-0.44-0.11-0.82-0.35-1.16c-0.23-0.33-0.61-0.6-1.14-0.83c-0.34-0.15-1.09-0.38-2.25-0.69c-1.17-0.31-1.98-0.6-2.44-0.88
				c-0.61-0.35-1.05-0.78-1.35-1.31c-0.3-0.52-0.45-1.1-0.45-1.75c0-0.71,0.18-1.37,0.55-1.99c0.36-0.62,0.89-1.09,1.59-1.41
				c0.7-0.32,1.47-0.48,2.32-0.48c0.94,0,1.77,0.17,2.48,0.5c0.72,0.34,1.27,0.83,1.65,1.48c0.38,0.65,0.59,1.39,0.62,2.22
				l-1.61,0.14c-0.08-0.89-0.38-1.56-0.88-2.02c-0.5-0.46-1.23-0.68-2.2-0.68c-1.02,0-1.75,0.21-2.21,0.62
				c-0.47,0.41-0.7,0.91-0.7,1.49c0,0.5,0.17,0.92,0.49,1.25c0.33,0.33,1.17,0.66,2.53,1c1.36,0.34,2.29,0.64,2.8,0.9
				c0.73,0.38,1.29,0.86,1.63,1.43c0.35,0.58,0.53,1.25,0.53,2c0,0.75-0.19,1.45-0.58,2.12c-0.38,0.66-0.94,1.17-1.66,1.55
				c-0.72,0.36-1.53,0.55-2.44,0.55c-1.14,0-2.11-0.19-2.88-0.56c-0.77-0.37-1.38-0.93-1.82-1.68
				C765.87,360.67,765.63,359.83,765.61,358.89z"/>
		</g>
		<g>
			<path class="st2" d="M758.74,295.55c0,0,5.04,0.06,5.22,5.63c0,0,0.08,2.58,2.61,2.58h6.48c0,0,3.09,0.25,2.44-4.58
				c0,0-0.76-11.19-11.06-13.59c-0.03,0-1.12-0.34-3.26-0.34h-9.09c0,0-11.76,0.58-14.3,12.9c0,0-1.22,11.38,1.71,14.68
				c0,0,1.96,3.14,5.25,4.77c-0.06-0.02,0.66,0.89,12.74,2.76c-0.04-0.01,3.32,0.1,3.41,2.75c0,0,0.41,3.01-2.57,3.21h-18.22
				c0,0-3.31-0.46-3.31,2.89v5.25c0,0-0.38,3.21,2.71,3.52h22.76c0,0,8.94,0.03,12.04-8.95c0,0,3.42-12.71-5.06-17.89
				c0,0-1.2-1.85-11.63-3.22c0,0-5.91-0.64-6.97-2.24c-0.02-0.02-2.52-1.98-0.98-7.23c0.09-0.15,1.25-2.66,4.66-2.91L758.74,295.55z
				"/>
			<path class="st2" d="M715.31,298.56c0,0,1.87,1.74,2.13,4.41c-0.01-0.02,0.1,2.5,2.66,2.82h6.5c0,0,2.03-0.15,2.46-2.47v-4.7
				c0,0,0.24-5.16-5.98-10.42c0,0-3.05-2.95-8.8-2.95h-10.05c0,0-5.26,0.16-8.76,3.88c0,0-3.9,3.17-5.67,9.25
				c-0.01,0.04-1.09,4.27-0.76,7.31v13.89c0,0,0.05,7.87,5.42,13.51c-0.02-0.02,3.19,3.94,8.38,4.71l1.84,0.19h7.59
				c0,0,4.5-0.32,6.53-4.64l2.21,3.15c0,0,0.93,1.49,2.34,1.49h4.21c0,0,2.15-0.55,2.15-2.68v-20.64c0,0,0.1-4.49-5.1-5.14h-10
				c0,0-3.2-0.21-3,3.64v2.77c0,0,0.24,2.11,2.03,2.54l1.19,0.14h2.02c0,0,0.95,5.23-3.83,7.49c0,0-6.18,2.26-9.65-2.44
				c0,0-1.6-1.45-1.38-6.55v-13.8c0,0,0.09-4.82,5.07-6.47c0.04,0,2.46-0.82,5.5,0.02C712.49,296.86,714.32,297.33,715.31,298.56z"
				/>
			<path class="st2" d="M669.89,311.25v-22.8c0,0,0.16-3.2,3.87-3.2h0.02c0.05,0,0.11,0,0.17,0h5.67c0,0,3.1,0.11,3.1,3.68v45.11
				c0,0,0.56,3.73-3.42,3.95h-3.97c0,0-1.76-0.18-2.65-1.46l-18.21-26.25v24.39c0,0-0.09,3-3.4,3.32h-6.34c0,0-3.21-0.18-3.21-3.45
				v-45.87c0,0-0.11-3.1,3.26-3.42h5.62c0,0,1.85,0.07,3.13,2.29C653.52,287.53,669.89,311.25,669.89,311.25z"/>
			<path class="st2" d="M634.08,334.9l-14.93-45.77c0,0-0.87-3.56-4.99-3.88h-3.84c-4.13,0.32-4.99,3.85-4.99,3.85l-14.92,45.82
				c-0.33,2.84,2.49,3.07,2.49,3.07H599c1.91,0,2.6-1.8,2.6-1.8l2.44-7.51h16.42l2.45,7.51c0,0,0.69,1.8,2.59,1.8h6.09
				C631.58,337.99,634.41,337.77,634.08,334.9z M607.73,317.66l4.55-14.02l0.03,0.09l4.57,13.92H607.73z"/>
			<path class="st2" d="M577.44,312.19c0,0,6.58-3.49,5.7-14.07c0,0,0.28-8.35-8.44-12.06c0,0-2.06-0.82-5.17-0.82h-19.26
				c0,0-6.26-0.26-5.81,6.47c0,7.42-0.06,43.32-0.06,43.32s-0.01,0.04-0.01,0.11v0.03c0.01,0.53,0.2,2.45,2.64,2.82h7.3
				c0,0,2.68-0.14,2.68-2.97v-16.71h8.35c0,0,4.91-0.54,5.46,5.07v11.95c0,0,0.1,2.35,2.67,2.66h7.17c0,0,2.26-0.23,2.46-2.68
				v-17.22C583.12,318.09,582.75,313.01,577.44,312.19z M566.42,306.44h-9.41v-9.32c0,0,3.28,0.03,6.99,0.05h2.37
				c4.59,0.44,4.62,4.49,4.62,4.49C570.79,306.17,566.42,306.44,566.42,306.44z"/>
		</g>
	</g>
	<g>
		<g>
			<g>
				<path class="st3" d="M573.3,410.42l5.19,6.73h-3.1l-4.79-6.45h-2.01v6.45h-2.53v-16.77h4.51c3.22,0,3.82,0.42,4.8,1.25
					c1.08,0.93,1.63,2.15,1.63,3.67c0,1.19-0.34,2.63-1.02,3.48C575.31,409.64,574.41,410.18,573.3,410.42z M568.59,408.5h2.36
					c2.4,0,3.59-1.33,3.59-3.17c0-1.72-1.17-2.57-3.5-2.57h-2.45V408.5z"/>
				<path class="st3" d="M611.9,417.16v-16.82l12.23,10.71v-10.66h2.53v16.8l-12.23-10.67v10.65H611.9z"/>
				<path class="st3" d="M648.22,401.29v2.99c-1.46-1.22-2.98-1.83-4.54-1.83c-1.73,0-3.18,0.62-4.36,1.86
					c-1.19,1.23-1.78,2.74-1.78,4.52c0,1.76,0.59,3.24,1.78,4.45c1.19,1.21,2.65,1.82,4.37,1.82c0.89,0,1.65-0.15,2.27-0.43
					c0.35-0.15,0.71-0.34,1.08-0.59c0.37-0.24,0.77-0.54,1.18-0.89v3.05c-1.45,0.82-2.97,1.23-4.56,1.23c-2.4,0-4.44-0.83-6.14-2.51
					c-1.69-1.69-2.53-3.72-2.53-6.1c0-2.14,0.7-4.04,2.12-5.72c1.74-2.05,3.99-3.07,6.74-3.07
					C645.36,400.07,646.81,400.47,648.22,401.29z"/>
				<path class="st3" d="M656.49,408.7c0-2.36,0.86-4.39,2.6-6.09c1.73-1.69,3.79-2.54,6.21-2.54c2.39,0,4.44,0.86,6.14,2.57
					c1.72,1.71,2.58,3.76,2.58,6.16c0,2.41-0.86,4.46-2.58,6.14c-1.73,1.69-3.82,2.53-6.27,2.53c-2.17,0-4.11-0.75-5.84-2.25
					C657.44,413.56,656.49,411.38,656.49,408.7z M659.04,408.73c0,1.85,0.62,3.38,1.87,4.57c1.24,1.2,2.67,1.79,4.29,1.79
					c1.76,0,3.24-0.61,4.46-1.82c1.21-1.23,1.81-2.73,1.81-4.5c0-1.79-0.6-3.29-1.8-4.5c-1.19-1.22-2.65-1.83-4.4-1.83
					c-1.75,0-3.22,0.61-4.43,1.83C659.64,405.48,659.04,406.96,659.04,408.73z"/>
				<path class="st3" d="M682.25,417.16v-16.82l12.23,10.71v-10.66h2.53v16.8l-12.23-10.67v10.65H682.25z"/>
			</g>
			<g>
				<linearGradient id="SVGID_1_" gradientUnits="userSpaceOnUse" x1="598.8578" y1="409.6148" x2="598.8578" y2="418.7248">
					<stop  offset="0" style="stop-color:#024D73"/>
					<stop  offset="1" style="stop-color:#0B2038"/>
				</linearGradient>
				<polygon class="st4" points="593.99,417.19 603.72,417.19 598.85,408.22 				"/>
				<linearGradient id="SVGID_2_" gradientUnits="userSpaceOnUse" x1="590.3893" y1="409.6147" x2="590.3893" y2="418.7248">
					<stop  offset="0" style="stop-color:#024D73"/>
					<stop  offset="1" style="stop-color:#0B2038"/>
				</linearGradient>
				<polygon class="st5" points="594.59,400.34 585.45,417.19 586.94,417.19 595.33,401.71 				"/>
				<linearGradient id="SVGID_3_" gradientUnits="userSpaceOnUse" x1="592.5248" y1="409.6131" x2="592.5248" y2="418.7251">
					<stop  offset="0" style="stop-color:#024D73"/>
					<stop  offset="1" style="stop-color:#0B2038"/>
				</linearGradient>
				<polygon class="st6" points="596.01,402.96 588.3,417.19 589.78,417.19 596.75,404.33 				"/>
				<linearGradient id="SVGID_4_" gradientUnits="userSpaceOnUse" x1="594.659" y1="409.6127" x2="594.659" y2="418.7253">
					<stop  offset="0" style="stop-color:#024D73"/>
					<stop  offset="1" style="stop-color:#0B2038"/>
				</linearGradient>
				<polygon class="st7" points="598.17,406.96 597.43,405.59 591.14,417.19 592.63,417.19 598.17,406.97 				"/>
			</g>
		</g>
		<g>
			<path class="st1" d="M548.51,414.63l-1.24,2.91h-1.25l4.73-10.74l4.6,10.74h-1.26l-1.21-2.91H548.51z M550.72,409.47l-1.75,4.1
				h3.47L550.72,409.47z"/>
			<path class="st1" d="M714.79,409.53c-0.81-0.84-1.95-1.36-3.12-1.36c-2.28,0-4.13,1.98-4.13,4.24c0,2.25,1.86,4.24,4.16,4.24
				c1.15,0,2.28-0.54,3.1-1.36v1.41c-0.88,0.64-1.97,1.01-3.06,1.01c-2.9,0-5.34-2.35-5.34-5.26c0-2.94,2.41-5.34,5.34-5.34
				c1.15,0,2.15,0.33,3.06,1.01V409.53z"/>
			<path class="st1" d="M726.88,412.43c0,2.95-2.42,5.29-5.34,5.29c-2.92,0-5.34-2.34-5.34-5.29c0-2.93,2.42-5.31,5.34-5.31
				C724.46,407.11,726.88,409.49,726.88,412.43z M717.34,412.42c0,2.31,1.88,4.24,4.2,4.24c2.32,0,4.2-1.93,4.2-4.24
				c0-2.33-1.85-4.24-4.2-4.24C719.19,408.18,717.34,410.09,717.34,412.42z"/>
			<path class="st1" d="M729.75,406.71l3.73,8.6l3.74-8.6l2.08,10.83h-1.17l-1.32-6.93h-0.02l-3.3,7.35l-3.29-7.35h-0.03l-1.32,6.93
				h-1.17L729.75,406.71z"/>
			<path class="st1" d="M741.72,417.54h-1.14v-10.25h1.69c0.88,0,1.8,0.03,2.54,0.54c0.76,0.53,1.15,1.43,1.15,2.34
				c0,0.83-0.34,1.67-0.98,2.2c-0.69,0.57-1.57,0.68-2.43,0.68h-0.83V417.54z M741.72,411.99h0.76c1.26,0,2.33-0.38,2.33-1.85
				c0-1.67-1.34-1.8-2.68-1.8h-0.42V411.99z"/>
			<path class="st1" d="M747.86,414.63l-1.24,2.91h-1.25l4.73-10.74l4.61,10.74h-1.26l-1.21-2.91H747.86z M750.08,409.47l-1.75,4.1
				h3.46L750.08,409.47z"/>
			<path class="st1" d="M755.88,406.86l7.99,8.37v-7.94h1.14V418l-7.99-8.35v7.89h-1.14V406.86z"/>
			<path class="st1" d="M766.21,407.29h1.32l2.61,4.56l2.61-4.56h1.32l-3.36,5.84v4.4h-1.14v-4.4L766.21,407.29z"/>
		</g>
	</g>
</g>
</svg>
